<svg xmlns="http://www.w3.org/2000/svg" viewBox="0 0 800 450" role="img" aria-label="Toyota Corolla Hybrid">
  <rect width="800" height="450" fill="#e9f5f2"/>
  <rect x="0" y="312" width="800" height="138" fill="#c2d5cf"/>
  <path d="M144 287h512l-35-82c-11-25-35-41-62-41H316c-36 0-70 16-93 44l-79 79Z" fill="#164e63"/>
  <path d="M313 187h86l-16 74H238l48-54c7-8 16-15 27-20Zm114 0h126c17 0 32 10 39 26l20 48H411l16-74Z" fill="#a7f3d0"/>
  <rect x="164" y="260" width="472" height="62" rx="30" fill="#2f9e44"/>
  <circle cx="253" cy="321" r="42" fill="#1f2937"/>
  <circle cx="253" cy="321" r="20" fill="#e9f5f2"/>
  <circle cx="559" cy="321" r="42" fill="#1f2937"/>
  <circle cx="559" cy="321" r="20" fill="#e9f5f2"/>
  <rect x="588" y="272" width="48" height="12" rx="6" fill="#ffd166"/>
</svg>
