<svg xmlns="http://www.w3.org/2000/svg" viewBox="0 0 800 450" role="img" aria-label="Dacia Duster Journey">
  <rect width="800" height="450" fill="#f1f5ea"/>
  <rect x="0" y="306" width="800" height="144" fill="#c8d2bc"/>
  <path d="M126 286h548l-31-95c-8-25-31-42-58-42H295c-33 0-64 16-83 43l-86 94Z" fill="#3f6212"/>
  <path d="M299 176h110l-14 82H223l58-66c5-6 11-12 18-16Zm138 0h139c16 0 30 10 35 26l18 56H423l14-82Z" fill="#bbf7d0"/>
  <rect x="150" y="256" width="506" height="70" rx="12" fill="#65a30d"/>
  <rect x="170" y="238" width="86" height="18" rx="9" fill="#365314"/>
  <circle cx="245" cy="323" r="48" fill="#1f2937"/>
  <circle cx="245" cy="323" r="22" fill="#e2e8f0"/>
  <circle cx="575" cy="323" r="48" fill="#1f2937"/>
  <circle cx="575" cy="323" r="22" fill="#e2e8f0"/>
  <rect x="608" y="272" width="48" height="14" rx="7" fill="#ffd166"/>
</svg>
